<svg width="58" height="58" viewBox="0 0 58 58" fill="none" xmlns="http://www.w3.org/2000/svg">
<g clip-path="url(#clip0)">
<path d="M20.7672 17.6986C20.8148 24.7883 23.6561 31.128 28.1146 35.4234C32.5149 31.0685 35.2709 24.6911 35.2234 17.6015C35.1766 10.6267 32.4258 4.37776 28.0914 0.0871199C27.973 -0.0301262 27.7802 -0.0288801 27.6634 0.0899519C23.3871 4.43837 20.7204 10.7238 20.7672 17.6986Z" fill="#8BC727"/>
<path d="M27.1458 26.6668C26.1066 23.906 25.5224 20.878 25.501 17.6986C25.4625 11.9659 27.2583 6.70003 30.2731 2.59143C29.6014 1.69821 28.8726 0.860378 28.0915 0.0871199C27.9732 -0.0301262 27.7804 -0.0288801 27.6636 0.0899519C23.3872 4.43837 20.7206 10.7238 20.7675 17.6985C20.8115 24.2594 23.2493 30.1768 27.146 34.4273V26.6668H27.1458Z" fill="#81B823"/>
<path d="M12.0616 48.5102C15.6625 52.063 20.2947 53.8281 24.7112 53.7458C24.7342 49.3287 22.9071 44.7206 19.3062 41.1678C15.7637 37.6725 11.223 35.9075 6.87154 35.9295C6.7526 35.9301 6.65608 36.0281 6.65699 36.1469C6.69335 40.4984 8.51911 45.0149 12.0616 48.5102Z" fill="#8BC727"/>
<path d="M19.1449 49.5015C17.4696 48.6587 15.8785 47.5314 14.4499 46.1219C11.5383 43.249 9.7874 39.6863 9.23561 36.0923C8.44604 35.9805 7.65568 35.9256 6.87143 35.9295C6.75249 35.9301 6.65597 36.0281 6.65699 36.1469C6.69335 40.4983 8.51911 45.0148 12.0616 48.5102C15.2957 51.7011 19.3615 53.4489 23.3559 53.7125L19.1449 49.5015Z" fill="#81B823"/>
<path d="M8.97507 30.4934C12.3886 33.8613 16.7795 35.5345 20.9661 35.4564C20.9879 31.2692 19.2559 26.9011 15.8425 23.5331C12.4844 20.2198 8.18018 18.5467 4.05515 18.5676C3.94244 18.5681 3.85091 18.6609 3.85181 18.7736C3.88625 22.8985 5.61685 27.18 8.97507 30.4934Z" fill="#8BC727"/>
<path d="M15.5613 31.369C14.02 30.5774 12.556 29.5306 11.2381 28.2302C8.47804 25.5069 6.81835 22.1296 6.29522 18.7228C5.54677 18.6169 4.79753 18.5647 4.05418 18.5686C3.94146 18.5691 3.84993 18.6619 3.85084 18.7746C3.88527 22.8995 5.61599 27.1809 8.97421 30.4942C12.0217 33.5011 15.8483 35.1559 19.6131 35.4208L15.5613 31.369Z" fill="#81B823"/>
<path d="M37.8235 29.7242C33.2129 34.3971 30.9225 40.408 31.0292 46.1392C36.7613 46.169 42.741 43.7981 47.3516 39.1252C51.8873 34.5281 54.1777 28.6358 54.1491 22.989C54.1483 22.8347 54.0213 22.7093 53.867 22.7106C48.2202 22.7579 42.3593 25.1272 37.8235 29.7242Z" fill="#8BC727"/>
<path d="M53.8669 22.7108C48.2202 22.758 42.3592 25.1272 37.8235 29.7242C33.5817 34.0234 31.3055 39.455 31.0513 44.7594L36.2039 39.6068C37.3266 37.1794 38.9009 34.8726 40.9227 32.8235C44.6508 29.045 49.274 26.773 53.9378 26.057C54.0829 25.0324 54.1543 24.0067 54.1491 22.9891C54.1483 22.8347 54.0212 22.7094 53.8669 22.7108Z" fill="#81B823"/>
<path d="M46.9481 30.0643C46.6161 29.7324 46.0782 29.7325 45.7465 30.0643L28.8451 46.9658V11.9075C28.8451 11.4383 28.4647 11.0579 27.9955 11.0579C27.5263 11.0579 27.1459 11.4383 27.1459 11.9075V40.5496L10.2623 23.6661C9.93052 23.3343 9.39255 23.3343 9.06086 23.6661C8.72906 23.9979 8.72906 24.5358 9.06086 24.8675L27.1459 42.9525V55.0992L13.3875 41.341C13.0557 41.0092 12.5178 41.0092 12.1861 41.341C11.8543 41.6728 11.8543 42.2108 12.1861 42.5425L27.3946 57.751C27.5484 57.9049 27.7609 58 27.9956 58C28.4648 58 28.8452 57.6196 28.8452 57.1504V49.3688L46.9482 31.2658C47.2798 30.934 47.2798 30.396 46.9481 30.0643Z" fill="#09A76D"/>
</g>
<defs>
<clipPath id="clip0">
<rect width="58" height="58" fill="white"/>
</clipPath>
</defs>
</svg>
