<svg width="40" height="47" viewBox="0 0 40 47" fill="none" xmlns="http://www.w3.org/2000/svg">
<path d="M38.9481 19.0643C38.6161 18.7324 38.0782 18.7325 37.7465 19.0643L20.8451 35.9658V0.907471C20.8451 0.43826 20.4647 0.0578613 19.9955 0.0578613C19.5263 0.0578613 19.1459 0.43826 19.1459 0.907471V29.5496L2.26232 12.6661C1.93052 12.3343 1.39255 12.3343 1.06086 12.6661C0.729062 12.9979 0.729062 13.5358 1.06086 13.8675L19.1459 31.9525V44.0992L5.38753 30.341C5.05573 30.0092 4.51775 30.0092 4.18606 30.341C3.85426 30.6728 3.85426 31.2108 4.18606 31.5425L19.3946 46.751C19.5484 46.9049 19.7609 47 19.9956 47C20.4648 47 20.8452 46.6196 20.8452 46.1504V38.3688L38.9482 20.2658C39.2798 19.934 39.2798 19.396 38.9481 19.0643Z" fill="#09A76D"/>
</svg>
